<svg width="77" height="76" viewBox="0 0 77 76" fill="none" xmlns="http://www.w3.org/2000/svg">
<path d="M67.7531 7.74075V14.0741C67.7531 17.1832 65.2327 19.7037 62.1235 19.7037H55.0865C54.1729 19.7037 53.284 20 52.5531 20.5482C51.49 21.3455 50.8643 22.597 50.8643 23.9259V24.124C50.8643 25.3489 51.3508 26.5236 52.217 27.3897L52.2717 27.4445C53.1728 28.3456 54.395 28.8519 55.6695 28.8519H72.6791C74.008 28.8519 75.2595 28.2261 76.0569 27.163C76.605 26.4321 76.9013 25.5432 76.9013 24.6296V7.74075C76.9013 6.41177 76.2756 5.16035 75.2124 4.36297C74.4816 3.81483 73.5926 3.51852 72.6791 3.51852H71.9754C71.0618 3.51852 70.1729 3.81483 69.442 4.36297C68.3789 5.16035 67.7531 6.41177 67.7531 7.74075Z" fill="#1E8D30"/>
<path d="M71.5295 46.8167C73.7696 47.422 75.1166 49.7405 74.2678 51.9001C71.5883 58.7177 66.9819 64.6461 60.97 68.9349C53.8131 74.0406 45.1072 76.5068 36.3357 75.9133C27.5643 75.3198 19.27 71.7032 12.8661 65.6798C6.46227 59.6565 2.34502 51.599 1.21594 42.8803C0.0868495 34.1616 2.01578 25.3212 6.67407 17.8652C11.3324 10.4093 18.4318 4.79923 26.7627 1.99091C35.0936 -0.817419 44.1405 -0.650239 52.3619 2.46396C59.268 5.07989 65.2326 9.63929 69.5603 15.5495C70.9312 17.4216 70.2193 20.0067 68.2073 21.1627C66.1953 22.3186 63.6491 21.6013 62.2201 19.7731C58.903 15.5293 54.472 12.2488 49.3854 10.322C42.9819 7.89648 35.9356 7.76627 29.4469 9.95359C22.9582 12.1409 17.4287 16.5104 13.8005 22.3176C10.1723 28.1248 8.66987 35.0104 9.54928 41.8011C10.4287 48.5919 13.6355 54.8676 18.6233 59.559C23.6111 64.2504 30.0712 67.0672 36.9031 67.5295C43.7349 67.9918 50.5156 66.071 56.09 62.0943C60.518 58.9353 63.9672 54.6344 66.0938 49.6856C67.01 47.5537 69.2895 46.2114 71.5295 46.8167Z" fill="#1E8D30"/>
</svg>
