<svg width="77" height="76" viewBox="0 0 77 76" fill="none" xmlns="http://www.w3.org/2000/svg">
<path d="M47.2213 29.2226C47.2213 35.071 47.2213 40.9291 47.2213 46.7775L47.2699 46.7289C41.441 46.7289 35.6023 46.7289 29.7734 46.7289L29.8221 46.7775C29.8221 44.8118 29.8221 42.8559 29.8221 40.8902L29.7734 40.9389H41.2074V35.0516H29.7734L29.8221 35.1002C29.8221 33.1345 29.8221 31.1786 29.8221 29.2129L29.7734 29.2615C35.6023 29.2615 41.441 29.2615 47.2699 29.2615L47.2213 29.2129V29.2226Z" fill="white"/>
<path d="M6.64232 6.02365C6.64232 10.8308 6.65205 15.346 6.64232 19.8613C6.63259 22.6444 5.91249 23.5007 3.67434 23.5007C1.42645 23.5007 0.67716 22.6249 0.667429 19.871C0.647966 15.2585 0.647966 10.6459 0.667429 6.02365C0.686891 2.36476 2.95424 0.0390255 6.52555 0.0195633C11.2841 -0.00963001 16.0523 0.0292958 20.8108 0.000102503C22.7959 -0.0096286 24.0513 0.671548 24.0707 2.88051C24.0902 5.12839 23.2728 5.98473 20.8011 6.00419C16.208 6.04312 11.6149 6.01392 6.63259 6.01392L6.64232 6.02365Z" fill="white"/>
<path d="M70.4105 6.02369C65.6423 6.02369 61.1465 6.03342 56.641 6.02369C53.8482 6.01395 52.9919 5.30359 52.9821 3.07516C52.9724 0.798086 53.8385 0.039059 56.5632 0.0293279C61.3217 0.0098657 66.0899 0.00013482 70.8484 0.0390592C74.0013 0.0682525 76.3465 2.45237 76.3757 5.63444C76.4146 10.4903 76.4146 15.3461 76.3757 20.2116C76.3562 22.732 75.5486 23.5494 73.3104 23.5105C71.1793 23.4715 70.3813 22.2746 70.3911 20.27C70.4105 15.6575 70.3911 11.0449 70.3911 6.02369H70.4105Z" fill="white"/>
<path d="M6.64264 69.9862C11.3136 69.9862 15.7315 69.9862 20.1494 69.9862C23.1855 69.9862 24.0516 70.6479 24.071 72.9153C24.0905 75.2605 23.2244 75.9806 20.2662 75.9806C15.5855 75.9903 10.9049 76.0097 6.22421 75.9611C3.07133 75.9319 0.706672 73.5575 0.677478 70.3852C0.638554 65.5293 0.638554 60.6735 0.677478 55.808C0.69694 53.2779 1.49489 52.4508 3.72331 52.4897C6.00039 52.5286 6.6913 53.8812 6.67184 55.954C6.62318 60.547 6.6621 65.1401 6.6621 69.9667L6.64264 69.9862Z" fill="white"/>
<path d="M70.4105 69.9862C70.4105 65.0428 70.4397 60.5081 70.4008 55.9831C70.3813 53.9299 70.9749 52.5286 73.3104 52.5091C75.5972 52.4896 76.3854 53.346 76.3951 56.061C76.4146 60.8389 76.4243 65.6169 76.3854 70.3949C76.3562 73.5769 74.0013 75.9513 70.8582 75.9805C65.9342 76.0194 61.0103 75.9805 56.0863 76C54.0331 76 52.9432 75.095 52.9821 72.9639C53.021 70.8425 54.1596 69.9862 56.1739 69.9959C60.8351 70.0154 65.4963 69.9959 70.4203 69.9959L70.4105 69.9862Z" fill="white"/>
<path d="M29.8317 29.2226H18.2906V17.6329H29.7734C29.7734 21.574 29.7734 25.4178 29.7734 29.2713L29.822 29.2226H29.8317Z" fill="white"/>
<path d="M47.2797 29.2713V17.701H58.8305V29.2226C54.9089 29.2226 51.0651 29.2226 47.2311 29.2226L47.2797 29.2713Z" fill="white"/>
<path d="M29.7734 46.7289V58.2992H18.2226V46.7775C22.1442 46.7775 25.988 46.7775 29.8221 46.7775L29.7734 46.7289Z" fill="white"/>
<path d="M47.2213 46.7775H58.7624V58.3673H47.2797C47.2797 54.4262 47.2797 50.5824 47.2797 46.7289L47.231 46.7775H47.2213Z" fill="white"/>
<path d="M41.3534 23.4132H35.7386V17.6523H41.3534V23.4132Z" fill="white"/>
<path d="M29.8318 40.8902H24.11V35.11C26.0367 35.11 27.9343 35.11 29.8318 35.11L29.7832 35.0613C29.7832 37.027 29.7832 38.9829 29.7832 40.9486L29.8318 40.9V40.8902Z" fill="white"/>
<path d="M58.7721 40.8805H53.1183V35.1586H58.7721V40.8805Z" fill="white"/>
<path d="M41.4118 52.7038V58.3381H35.6996V52.7038H41.4118Z" fill="white"/>
</svg>
