<svg width="43" height="34" viewBox="0 0 43 34" fill="none" xmlns="http://www.w3.org/2000/svg">
<path fill-rule="evenodd" clip-rule="evenodd" d="M13.0284 0.821667L0.479505 16.478C-0.190871 17.3144 -0.158611 18.5128 0.55579 19.3119L13.0329 33.2684C13.4491 33.7339 14.0439 34 14.6683 34H39.7095C41.5267 34 42.9998 32.5269 42.9998 30.7097V3.29032C42.9998 1.47313 41.5267 0 39.7095 0H14.74C14.0743 0 13.4447 0.302264 13.0284 0.821667ZM17.8371 8.68263C18.4934 8.05429 19.5349 8.07696 20.1632 8.73326L25.9571 14.785L31.4598 9.25857C32.1008 8.61471 33.1425 8.61246 33.7864 9.25355C34.4302 9.89464 34.4325 10.9363 33.7914 11.5802L28.2332 17.1624L33.8138 22.9913C34.4421 23.6476 34.4195 24.689 33.7632 25.3174C33.1068 25.9457 32.0654 25.9231 31.4371 25.2668L25.911 19.4947L19.5948 25.8382C18.9537 26.4821 17.912 26.4843 17.2682 25.8432C16.6243 25.2022 16.6221 24.1605 17.2632 23.5166L23.6349 17.1173L17.7865 11.0087C17.1582 10.3524 17.1808 9.31097 17.8371 8.68263Z" fill="#838383"/>
</svg>
