<svg width="62" height="76" viewBox="0 0 62 76" fill="none" xmlns="http://www.w3.org/2000/svg">
<path d="M0.420875 28.8362C0.420875 24.9658 0.437776 21.1037 0.412424 17.2333C0.395522 15.3656 1.2237 14.453 3.12513 14.3347C12.8182 13.7431 21.007 10.0247 27.3113 2.46974C27.5733 2.15706 27.8606 1.86129 28.1395 1.56551C30.1423 -0.54719 31.3254 -0.47113 33.4128 1.48945C36.3959 4.29512 39.3452 7.17684 42.6326 9.58531C45.8946 11.9853 49.7482 13.2783 53.8468 13.6501C55.6468 13.8107 57.4891 13.9459 59.1877 14.4952C59.9905 14.7572 61.0384 15.9572 61.0469 16.7431C61.1567 24.9658 61.5877 33.2391 60.8947 41.411C60.2778 48.628 57.337 55.2618 52.9087 61.2028C48.7594 66.7718 43.596 70.955 37.41 73.9381C35.7452 74.7409 34.0381 75.7719 32.2719 75.9494C30.4381 76.1438 28.3761 75.7635 26.6521 75.062C16.5027 70.9127 8.91392 63.8901 4.31669 53.8759C2.93076 50.8505 1.84906 47.5547 1.35046 44.2758C0.603988 39.3376 0.813014 34.7067 0.454918 29.7324C0.433246 29.4313 0.420875 29.1296 0.420875 28.8278V28.8362ZM55.8919 19.8784C52.5792 19.1094 49.4439 18.7037 46.5538 17.6305C41.1114 15.5938 36.1001 12.7121 32.2973 8.15713C31.1311 6.76275 30.3536 6.94867 29.2465 8.19939C26.0437 11.7994 22.2915 14.7065 17.7196 16.329C13.8069 17.715 9.81816 18.8981 5.62656 20.2502C5.62656 25.008 5.57586 30.1207 5.64346 35.2419C5.70262 39.6955 6.48009 44.0138 7.95053 48.2561C11.2632 57.814 17.5253 64.676 26.5254 69.0113C28.1141 69.7719 29.6691 71.0648 31.8578 70.2958C36.2607 68.7662 40.1565 66.4507 43.6213 63.3915C51.0834 56.8083 54.92 48.2731 55.7905 38.5631C56.3482 32.3771 55.8919 26.0897 55.8919 19.8868V19.8784Z" fill="white"/>
<path d="M28.4184 51.2055C27.4719 50.6984 26.5931 50.428 26.0015 49.8702C23.6437 47.6223 21.362 45.3068 19.0888 42.9744C17.7704 41.6223 17.7028 39.9068 18.8268 38.7828C19.9507 37.6673 21.6578 37.7518 23.0099 39.0617C24.2268 40.2363 25.5367 41.3688 26.5508 42.704C27.7593 44.3012 28.6044 44.1322 29.9142 42.78C33.6748 38.8758 37.4946 35.0307 41.4665 31.3461C42.1763 30.6869 43.9172 30.425 44.7707 30.8391C45.4806 31.1771 45.7848 32.7658 45.8693 33.8306C45.92 34.3884 45.1933 35.1067 44.6947 35.6137C40.0805 40.287 35.4495 44.9434 30.7847 49.5745C30.1509 50.1998 29.2973 50.6139 28.4184 51.2139V51.2055Z" fill="white"/>
</svg>
