<svg width="41" height="43" viewBox="0 0 41 43" fill="none" xmlns="http://www.w3.org/2000/svg">
<path d="M2.37502 25.9916C1.875 22.4916 1.875 20.9916 2.37502 17.9916" stroke="#307E46" stroke-width="3" stroke-linecap="round"/>
<path d="M3.875 12.4916C4.875 4.99158 20.375 -3.00847 30.375 5.99153" stroke="#307E46" stroke-width="3" stroke-linecap="round"/>
<path d="M34.375 9.49158C36.875 11.9916 38.375 19.9916 37.875 25.9916" stroke="#307E46" stroke-width="3" stroke-linecap="round"/>
<path d="M7.87491 33.9916C7.37491 27.4916 6.37494 16.9916 9.87494 13.9916" stroke="#307E46" stroke-width="3" stroke-linecap="round"/>
<path d="M13.375 9.49162C16.875 5.99159 35.375 4.49158 31.875 33.9917" stroke="#307E46" stroke-width="3" stroke-linecap="round"/>
<path d="M13.875 38.4916V21.01C13.875 19.6892 14.2339 18.3933 14.9135 17.2608L14.9582 17.1862C15.235 16.7249 15.5674 16.2992 15.9478 15.9188L16.1519 15.7147C17.2552 14.6114 18.7516 13.9916 20.3119 13.9916V13.9916C22.2317 13.9916 24.0307 14.9282 25.1316 16.501L25.5551 17.106C26.4142 18.3333 26.875 19.7951 26.875 21.2932V23.9916" stroke="#307E46" stroke-width="3" stroke-linecap="round"/>
<path d="M19.875 19.4916V28.9916" stroke="#307E46" stroke-width="3" stroke-linecap="round"/>
<path d="M19.875 33.4916V39.9916" stroke="#307E46" stroke-width="3" stroke-linecap="round"/>
<path d="M26.875 28.4916V38.4916" stroke="#307E46" stroke-width="3" stroke-linecap="round"/>
</svg>
