<svg width="79" height="78" viewBox="0 0 79 78" fill="none" xmlns="http://www.w3.org/2000/svg">
<path d="M59.47 36.5711C65.2379 44.7629 71.1473 52.6008 76.3844 60.8987C78.0652 63.5704 79.286 68.1351 78.2598 70.4706C77.5167 73.443 72.6335 74.8407 69.4842 75.0353C49.6682 76.3269 29.8168 77.1231 9.98318 77.9723C2.56989 78.2908 0.0575017 75.9023 0.0398089 68.6482C-0.0132696 49.9823 -0.0132696 31.3163 0.0398089 12.6327C0.0575017 5.7325 2.49912 3.2732 9.36394 2.91935C29.1976 1.87547 49.0136 0.672357 68.8649 0.0177229C71.7135 -0.0707413 74.8628 0.0177236 77.1982 4.08707C78.419 5.9979 77.5167 10.3503 76.0482 12.6681C70.935 20.7714 65.1671 28.4678 59.47 36.5534V36.5711ZM7.82466 70.5236C29.1799 69.409 49.8451 68.312 71.5896 67.1797C65.6094 58.6871 60.6731 51.1323 55.153 44.0375C50.9952 38.6942 51.1544 34.218 55.2591 28.9632C60.3547 22.4168 64.8663 15.4105 70.4042 7.50179C48.5182 8.65182 28.2068 9.71339 7.82466 10.7927V70.5236Z" fill="white"/>
</svg>
