<svg width="77" height="76" viewBox="0 0 77 76" fill="none" xmlns="http://www.w3.org/2000/svg">
<path d="M38.3868 0C59.7591 0.730015 76.3014 16.6911 76.2801 38.138C76.2517 59.5069 59.6525 76.0988 38.0885 75.9996C16.7659 75.9003 0.209351 59.4077 0.280379 37.9254C0.35851 16.6344 16.8583 0.623704 38.3868 0.00708904V0ZM34.7573 26.8688C34.1434 26.3788 34.1393 25.3416 34.486 24.6367C34.853 23.8906 35.1997 23.1765 35.7802 22.5C37.2859 20.7565 38.6607 19.1372 40.2802 17.5C41.5444 16.2242 42.3501 14.8909 41.3273 13.8986C40.3045 12.9064 38.9266 13.0198 37.641 14.2672C35.7801 16.0816 33.8623 17.8464 32.1434 19.7884C29.7143 22.5383 28.9401 25.7986 30.2967 29.392C30.4814 29.881 30.1689 30.6465 29.7995 31.0717C28.5708 32.4963 27.207 33.8146 25.8788 35.1471C23.0519 37.9821 20.2037 40.7887 17.391 43.6379C15.942 45.105 15.942 46.1115 17.256 47.3022C18.5558 48.4787 19.607 47.9967 20.6938 46.8982C24.6784 42.8725 28.7057 38.8964 32.7117 34.8919C33.3793 34.2186 34.1535 33.2051 35.2687 33.6445C37.8967 34.6934 40.4466 35.1541 42.7053 33.3823C45.3191 31.334 47.6914 28.9738 50.1135 26.6845C51.7482 25.1395 51.4559 24.0196 50.4615 23.0132C49.6025 22.1438 48.5587 22.7242 47.2802 24C45.6039 25.6656 43.7802 27.5 41.7802 28.91C40.1388 30.0672 39.2036 30.1858 37.8541 29.9165C38.1879 29.5621 38.4862 29.229 38.7988 28.91C41.0858 26.5853 43.3729 24.2606 45.6742 21.9501C46.6047 21.0145 47.2582 20.1144 46.207 18.7961C45.0421 17.3361 43.8986 17.1731 42.4496 18.6615C39.8358 21.3476 37.3143 24.133 34.7573 26.8688ZM56.0372 30.8307C55.5737 30.8862 55.3452 30.9126 54.9718 30.9865C54.1026 31.1585 53.587 31.5395 53.3737 31.745C49.0481 35.9125 44.7296 40.1012 40.6668 44.5168C39.9505 45.2953 39.3457 46.0689 38.9905 46.7777C38.8392 47.0797 38.8079 47.6556 38.888 48.1798C38.9879 48.8329 39.4732 49.3252 39.9916 49.7349C40.9477 50.4904 40.6611 50.4048 37.7546 53.1352C36.0571 54.7299 34.5655 56.0836 32.9532 57.7633C31.9656 58.7936 31.0363 60.3398 31.7565 61.5719C31.9261 61.862 32.1655 62.1047 32.456 62.271C33.1165 62.6467 34.1748 62.6821 34.9206 62.4482C35.7943 62.0159 35.7943 61.9179 36.8029 60.9173C41.7038 56.0553 46.6118 51.2003 51.4772 46.3028C54.3183 43.4395 56.8469 40.5194 59.5886 37.5639C60.931 36.118 61.3146 34.3036 60.1355 32.8153C59.634 32.1814 59.1792 31.8812 58.6641 31.5798C57.8667 31.1133 56.961 30.8307 56.0372 30.8307Z" fill="#00AB7A"/>
</svg>
