<svg width="74" height="64" viewBox="0 0 74 64" fill="none" xmlns="http://www.w3.org/2000/svg">
<path d="M59.7371 17.5224L51.547 25.1739C51.4671 25.2486 51.4356 25.3662 51.462 25.4723C57.0484 47.9453 39.5971 49.7556 29.9975 47.8267C29.8978 47.8067 29.7975 47.8383 29.726 47.9106L22.9902 54.728C22.8332 54.8868 22.906 55.1575 23.119 55.2244C50.4659 63.8158 68.0923 44.3559 73.5842 33.365C73.6259 33.2814 73.6242 33.187 73.5824 33.1034C69.9805 25.9043 63.2416 19.8079 60.114 17.4974C59.9986 17.4122 59.8419 17.4244 59.7371 17.5224Z" fill="white"/>
<path d="M46.1522 32.737L36.0748 41.6504C35.894 41.8103 35.9672 42.1035 36.2046 42.1471C38.1329 42.5015 41.6857 42.6033 44.012 40.7378C46.3548 38.859 46.7425 35.0559 46.6314 32.9296C46.6187 32.6868 46.3343 32.5759 46.1522 32.737Z" fill="white"/>
<path fill-rule="evenodd" clip-rule="evenodd" d="M13.4097 49.1093C8.31947 44.5864 2.79404 37.441 0.676335 33.7977C0.62554 33.7103 0.62269 33.6101 0.668904 33.5202C6.81691 21.5616 25.5273 0.0196166 51.9355 10.7547C52.0477 10.8004 52.18 10.7762 52.2656 10.6905L61.6278 1.32834C61.814 1.14214 62.0182 0.974786 62.2373 0.828719L62.856 0.416271C63.4923 -0.00798186 64.2889 -0.114662 65.0145 0.1272C65.5374 0.301489 65.992 0.652202 66.2977 1.11079C66.8047 1.8712 66.8735 2.8573 66.4648 3.67471L66.1063 4.39167C65.9175 4.76929 65.6691 5.11399 65.3705 5.41252L8.77795 62.0051C8.13375 62.6493 7.26004 63.0112 6.34902 63.0112H5.73941C4.97175 63.0112 4.25487 62.6276 3.82905 61.9888C3.43604 61.3993 3.33721 60.6614 3.56126 59.9892L3.64607 59.7348C3.78571 59.3159 4.02096 58.9352 4.33319 58.623L13.4218 49.5344C13.541 49.4152 13.5356 49.2212 13.4097 49.1093ZM22.3959 40.6212L27.8205 36.4021C27.9224 36.3228 27.9627 36.1896 27.9217 36.0672C26.6819 32.3632 26.0555 25.1432 32.8627 23.9323C33.0424 23.9003 33.2091 24.0401 33.2091 24.2227V28.4299C33.2091 28.6882 33.5139 28.8258 33.7076 28.6549L43.9719 19.5982C44.1291 19.4594 44.0995 19.207 43.9105 19.1162C39.9594 17.2174 30.6366 15.3614 24.0779 21.9201C17.4846 28.5133 20.0111 36.8729 21.9546 40.5306C22.0407 40.6925 22.2512 40.7338 22.3959 40.6212Z" fill="white"/>
</svg>
