<svg width="35" height="35" viewBox="0 0 35 35" fill="none" xmlns="http://www.w3.org/2000/svg">
<path fill-rule="evenodd" clip-rule="evenodd" d="M0.871843 11.823L16.3718 1.23445C17.0522 0.769708 17.9478 0.769709 18.6282 1.23445L34.1282 11.823C34.6737 12.1957 35 12.8138 35 13.4745V33C35 34.1046 34.1046 35 33 35H2C0.89543 35 0 34.1046 0 33V13.4745C0 12.8138 0.326293 12.1957 0.871843 11.823ZM17.5 27.0301C20.0057 27.0301 22.037 24.9486 22.037 22.381C22.037 19.8134 20.0057 17.7319 17.5 17.7319C14.9943 17.7319 12.963 19.8134 12.963 22.381C12.963 24.9486 14.9943 27.0301 17.5 27.0301Z" fill="#848484"/>
</svg>
