<svg width="36" height="36" viewBox="0 0 36 36" fill="none" xmlns="http://www.w3.org/2000/svg">
<path fill-rule="evenodd" clip-rule="evenodd" d="M17.9581 36C27.8992 36 35.9581 27.9411 35.9581 18C35.9581 8.05887 27.8992 0 17.9581 0C8.43425 0 0.637944 7.39655 0.00024531 16.7586H17.4801C17.7496 16.7586 17.9299 16.4812 17.8204 16.2349L15.9668 12.0643C15.7804 11.6449 16.0874 11.1724 16.5464 11.1724C16.7162 11.1724 16.8789 11.2405 16.9981 11.3613L23.1145 17.5642C23.3528 17.8059 23.3528 18.1941 23.1145 18.4358L17.2217 24.4119C16.9773 24.6598 16.601 24.7222 16.2896 24.5665C15.8924 24.3679 15.7314 23.8849 15.93 23.4877L17.7837 19.7803C17.9075 19.5327 17.7274 19.2414 17.4506 19.2414H0.000244141C0.637934 28.6034 8.43424 36 17.9581 36Z" fill="#0E9429"/>
</svg>
