<svg width="36" height="36" viewBox="0 0 36 36" fill="none" xmlns="http://www.w3.org/2000/svg">
<path fill-rule="evenodd" clip-rule="evenodd" d="M0 32.7089V3.80636C0 3.16289 0.442678 2.60396 1.06905 2.45658L11.3528 0.0368616C11.6348 -0.0294898 11.9305 -0.00585603 12.1984 0.104445L23.045 4.57069C23.3832 4.70995 23.7627 4.70995 24.1009 4.57069L33.4448 0.723198C34.3575 0.347401 35.3594 1.0184 35.3594 2.0054V30.8466C35.3594 31.4345 34.9887 31.9585 34.4343 32.1542L24.1485 35.7845C23.7818 35.9139 23.3776 35.8834 23.0344 35.7004L13.6874 30.7153C13.3585 30.5399 12.9728 30.5043 12.6173 30.6165L1.80421 34.0312C0.910486 34.3134 0 33.6461 0 32.7089ZM10.3998 6.86805C11.1657 6.86805 11.7865 7.48888 11.7865 8.2547V23.5078C11.7865 24.2736 11.1657 24.8944 10.3998 24.8944C9.63401 24.8944 9.01319 24.2736 9.01319 23.5078V8.2547C9.01319 7.48888 9.63401 6.86805 10.3998 6.86805ZM27.0396 10.3347C27.0396 9.56884 26.4188 8.94802 25.6529 8.94802C24.8871 8.94802 24.2663 9.56884 24.2663 10.3347V26.9744C24.2663 27.7402 24.8871 28.3611 25.6529 28.3611C26.4188 28.3611 27.0396 27.7402 27.0396 26.9744V10.3347Z" fill="#828282"/>
</svg>
