<svg width="32" height="36" viewBox="0 0 32 36" fill="none" xmlns="http://www.w3.org/2000/svg">
<path d="M12.5925 31.4815C13.7373 33.6626 16.5993 35.8437 18.8888 31.4815" stroke="#828282" stroke-width="2.51852" stroke-linecap="round"/>
<path d="M28.888 28.963H2.25266C1.00855 28.963 0 27.9544 0 26.7103C0 25.7892 0.560802 24.9609 1.41604 24.6188L1.57407 24.5556C2.52476 24.1753 3.14815 23.2545 3.14815 22.2306V13.8999C3.14815 11.798 3.63753 9.72495 4.57753 7.84495L4.95675 7.08651C6.22356 4.55288 8.39178 2.58436 11.0356 1.56749C13.659 0.558522 16.5633 0.558522 19.1866 1.56749L19.3894 1.64548C21.9183 2.61813 24.0402 4.42347 25.4055 6.76388L25.8025 7.44453C27.0476 9.579 27.7037 12.0058 27.7037 14.4769V22.0743C27.7037 23.1926 28.3846 24.1983 29.4229 24.6136L29.7039 24.726C30.4167 25.0111 30.9289 25.6475 31.0551 26.4047C31.2783 27.7439 30.2456 28.963 28.888 28.963Z" fill="#828282"/>
</svg>
