<svg width="77" height="76" viewBox="0 0 77 76" fill="none" xmlns="http://www.w3.org/2000/svg">
<path d="M76.2802 38C76.2802 58.9868 59.267 76 38.2802 76C17.2933 76 0.280151 58.9868 0.280151 38C0.280151 17.0132 17.2933 0 38.2802 0C59.267 0 76.2802 17.0132 76.2802 38ZM5.20425 38C5.20425 56.2673 20.0128 71.0759 38.2802 71.0759C56.5475 71.0759 71.356 56.2673 71.356 38C71.356 19.7327 56.5475 4.9241 38.2802 4.9241C20.0128 4.9241 5.20425 19.7327 5.20425 38Z" fill="#148F2A"/>
<rect x="35.2802" y="18" width="6" height="40" rx="3" fill="#148F2A"/>
<rect x="58.2802" y="35" width="6" height="40" rx="3" transform="rotate(90 58.2802 35)" fill="#148F2A"/>
</svg>
