<svg width="36" height="36" viewBox="0 0 36 36" fill="none" xmlns="http://www.w3.org/2000/svg">
<path fill-rule="evenodd" clip-rule="evenodd" d="M5.33333 0C2.38781 0 0 2.38782 0 5.33333V30.6667C0 33.6122 2.38782 36 5.33333 36H30.6667C33.6122 36 36 33.6122 36 30.6667V5.33333C36 2.38781 33.6122 0 30.6667 0H5.33333ZM14.6667 8H8V14.6667H14.6667L14.6667 17.3333H12V20H14.6667L14.6667 22.6667H8V29.3333H14.6667V22.6667H17.3333H20H22.6667V29.3333H29.3333V22.6667H22.6667V20V17.3333V14.6667H29.3333V8H22.6667V14.6667L20 14.6667H17.3333L14.6667 14.6667V8ZM14.6667 20H17.3333H20V17.3333H17.3333H14.6667V20ZM20 26.6667H17.3333V29.3333H20V26.6667ZM20 8H17.3333V10.6667H20V8ZM29.3333 17.3333H26.6667V20H29.3333V17.3333Z" fill="#828282"/>
</svg>
