<svg width="36" height="36" viewBox="0 0 36 36" fill="none" xmlns="http://www.w3.org/2000/svg">
<path fill-rule="evenodd" clip-rule="evenodd" d="M18 36C27.9411 36 36 27.9411 36 18C36 8.05887 27.9411 0 18 0C8.05887 0 0 8.05887 0 18C0 27.9411 8.05887 36 18 36ZM23.0408 6.75228C22.3136 6.0251 21.1346 6.0251 20.4075 6.75228C19.6803 7.47947 19.6803 8.65846 20.4075 9.38565C21.7363 10.7145 23.4146 13.239 23.9728 16.3292C24.5152 19.3328 24.0231 22.964 20.9074 26.7473C20.2537 27.5412 20.3673 28.7147 21.1611 29.3684C21.9549 30.0222 23.1285 29.9086 23.7822 29.1148C27.6183 24.4566 28.3675 19.7086 27.6376 15.6673C26.9233 11.7128 24.8154 8.52684 23.0408 6.75228ZM14.9747 11.5805C15.7777 10.938 16.9495 11.0682 17.592 11.8713C20.6188 15.6548 20.6188 21.5866 17.592 25.3701C16.9495 26.1732 15.7777 26.3034 14.9747 25.6609C14.1717 25.0185 14.0415 23.8467 14.6839 23.0437C16.6226 20.6203 16.6226 16.6211 14.6839 14.1977C14.0415 13.3947 14.1717 12.2229 14.9747 11.5805ZM9.93103 21.1034C11.3022 21.1034 12.4138 19.9919 12.4138 18.6207C12.4138 17.2495 11.3022 16.1379 9.93103 16.1379C8.55984 16.1379 7.44828 17.2495 7.44828 18.6207C7.44828 19.9919 8.55984 21.1034 9.93103 21.1034Z" fill="#828282"/>
</svg>
