<svg width="81" height="78" viewBox="0 0 81 78" fill="none" xmlns="http://www.w3.org/2000/svg">
<path d="M44.1205 5.54901L41.7583 6.46451L44.1204 5.549C42.95 2.52906 38.677 2.52906 37.5065 5.549L30.5898 23.395L11.4799 24.4585C8.24604 24.6384 6.92562 28.7023 9.43606 30.7487L24.2712 42.8416L19.3773 61.3448C18.5492 64.476 22.0061 66.9876 24.7281 65.2324L40.8135 54.8602L56.8988 65.2324C59.6208 66.9876 63.0778 64.476 62.2496 61.3448L57.3557 42.8416L72.1909 30.7487C74.7013 28.7023 73.3809 24.6384 70.1471 24.4585L51.0371 23.395L44.1205 5.54901Z" stroke="#148F2A" stroke-width="5.06667"/>
<rect x="19.9177" y="7.73227" width="5.33448" height="8.10667" rx="2.66724" transform="rotate(135 19.9177 7.73227)" fill="#148F2A"/>
<rect width="5.33448" height="8.10667" rx="2.66724" transform="matrix(0.707107 0.707107 0.707107 -0.707107 62.4777 7.73227)" fill="#148F2A"/>
<rect x="7.30072" y="44.56" width="5.33448" height="8.10667" rx="2.66724" transform="rotate(60 7.30072 44.56)" fill="#148F2A"/>
<rect width="5.33448" height="8.10667" rx="2.66724" transform="matrix(-0.5 0.866025 0.866025 0.5 73.8807 44.56)" fill="#148F2A"/>
<rect width="5.33448" height="8.10667" rx="2.66724" transform="matrix(-1 -8.74228e-08 -8.74228e-08 1 43.1081 69.8933)" fill="#148F2A"/>
</svg>
