<svg width="77" height="76" viewBox="0 0 77 76" fill="none" xmlns="http://www.w3.org/2000/svg">
<path fill-rule="evenodd" clip-rule="evenodd" d="M38.9012 76C59.8881 76 76.9012 58.9868 76.9012 38C76.9012 17.0132 59.8881 0 38.9012 0C17.9144 0 0.901245 17.0132 0.901245 38C0.901245 58.9868 17.9144 76 38.9012 76ZM47.5336 21.7763L66.5874 35.991C67.7049 36.8247 67.7217 38.4936 66.6211 39.3495L47.7471 54.0294C47.099 54.5334 46.1899 54.5272 45.5488 54.0143C45.1278 53.6775 44.8827 53.1676 44.8827 52.6285V48.9812C44.8827 48.7461 44.6922 48.5556 44.4571 48.5556H25.5309C24.7536 48.5556 24.1235 47.9254 24.1235 47.1481V45.7407C24.1235 44.9635 24.7536 44.3333 25.5309 44.3333H31.5124C31.901 44.3333 32.2161 44.0183 32.2161 43.6296V40.8148C32.2161 40.4262 31.901 40.1111 31.5124 40.1111H10.7531C9.97581 40.1111 9.34569 39.481 9.34569 38.7037V37.2963C9.34569 36.519 9.97581 35.8889 10.7531 35.8889H27.2901C27.6788 35.8889 27.9938 35.5738 27.9938 35.1852V32.0185C27.9938 31.6299 27.6788 31.3148 27.2901 31.3148H17.0864C16.3091 31.3148 15.679 30.6847 15.679 29.9074V28.8519C15.679 28.0746 16.3091 27.4444 17.0864 27.4444H44.4905C44.7071 27.4444 44.8827 27.2688 44.8827 27.0522V23.1059C44.8827 22.5232 45.1885 21.9832 45.6881 21.6834C46.2652 21.3372 46.9942 21.3739 47.5336 21.7763Z" fill="#148F2B"/>
</svg>
