<svg width="79" height="78" viewBox="0 0 79 78" fill="none" xmlns="http://www.w3.org/2000/svg">
<path d="M39.4297 78C18.1383 77.9812 0.598673 60.2063 0.636191 38.7001C0.673709 17.4564 18.4947 -0.0561148 40.03 0.000135129C61.2276 0.056385 78.7109 17.9251 78.6359 39.4876C78.5609 60.5063 60.7399 78.0187 39.4297 78ZM30.5755 58.5C34.815 58.5 38.6466 58.575 42.8861 58.5C44.4908 58.4755 46.0215 58.2405 47.0786 57.3338C48.3168 56.2718 48.3252 54.4243 48.2846 52.7935C48.1833 48.7181 47.5159 46.6473 43.1252 44.7778C35.0589 41.3653 26.8612 41.1188 18.8136 44.5501C15.6668 45.892 13.3433 49.1681 13.3069 52.589C13.2941 53.7871 13.5449 54.8107 13.7862 55.8375C14.4428 57.3938 16.1921 58.2188 18.3306 58.5C21.9417 58.5 24.1084 58.5 28.0806 58.5H30.5755ZM22.6554 28.3313C22.6554 34.6667 26.3735 38.0063 30.8381 38.1188C35.7529 38.2501 39.1671 34.4251 39.1858 28.8751C39.2046 22.9126 36.0718 19.1813 31.0069 19.1438C26.017 19.1063 23.0297 22.5666 22.6639 28.1667L22.6554 28.3313ZM41.5495 39.6938C43.9695 40.4444 45.2638 41.1751 46.8584 42.1313C49.7472 43.8638 51.0933 45.552 51.5528 49.8333C51.9139 53.4444 54.0806 53.4444 56.9695 53.4444C58.775 53.4444 59.5022 53.5644 60.9417 53.4444C65.4529 53.0685 67.3713 47.5238 65.0713 43.6247C64.7272 43.0415 64.315 42.5277 63.8306 42.1313C59.8584 38.8813 48.3028 37.1944 41.5682 39.6938H41.5495ZM58.1136 26.6813C57.6917 20.5833 54.5869 18.2064 50.9664 17.9439C46.802 17.6439 43.2378 21.5063 43.1252 26.2126C43.0126 31.0688 46.4643 34.9126 50.9102 34.8751C55.2998 34.8188 58.0761 31.6688 58.1136 26.6813Z" fill="#19D03B"/>
</svg>
