<svg width="77" height="76" viewBox="0 0 77 76" fill="none" xmlns="http://www.w3.org/2000/svg">
<path fill-rule="evenodd" clip-rule="evenodd" d="M38.9012 76C59.8881 76 76.9012 58.9868 76.9012 38C76.9012 17.0132 59.8881 0 38.9012 0C17.9144 0 0.901245 17.0132 0.901245 38C0.901245 58.9868 17.9144 76 38.9012 76ZM17.75 36.908L32.9365 23.8307C33.5293 23.3203 34.357 23.1823 35.0833 23.4728C35.8793 23.7912 36.4012 24.5622 36.4012 25.4195V29.9454C36.4012 30.2517 36.6496 30.5 36.9559 30.5H60.9012C61.4535 30.5 61.9012 30.9477 61.9012 31.5V44.5C61.9012 45.0523 61.4535 45.5 60.9012 45.5H39.3747C39.0776 45.5 38.7988 45.3565 38.6261 45.1147L36.6702 42.3765C36.5863 42.2591 36.4012 42.3185 36.4012 42.4627V50.5555C36.4012 51.4279 35.8701 52.2125 35.0601 52.5365C34.3443 52.8228 33.5297 52.7007 32.9293 52.217L17.8012 40.0305C16.8126 39.2341 16.788 37.7364 17.75 36.908Z" fill="#148F2B"/>
</svg>
