<svg width="77" height="76" viewBox="0 0 77 76" fill="none" xmlns="http://www.w3.org/2000/svg">
<path fill-rule="evenodd" clip-rule="evenodd" d="M38.6361 76C59.623 76 76.6361 58.9868 76.6361 38C76.6361 17.0132 59.623 0 38.6361 0C17.6493 0 0.636131 17.0132 0.636131 38C0.636131 58.9868 17.6493 76 38.6361 76ZM44.1143 12.7767C42.3938 12.403 40.8364 13.7154 40.6776 15.4688C40.5187 17.2222 41.8231 18.7467 43.527 19.1898C45.4403 19.6872 47.2726 20.4753 48.9582 21.5318C51.5476 23.1548 53.7177 25.3654 55.2925 27.9843C56.8672 30.6032 57.8023 33.5566 58.0217 36.6046C58.2411 39.6526 57.7387 42.7094 56.5552 45.5269C55.3717 48.3443 53.5406 50.843 51.2104 52.8201C48.8802 54.7971 46.1167 56.1969 43.1441 56.9057C40.1715 57.6145 37.0737 57.6123 34.1021 56.8994C32.1677 56.4354 30.3222 55.6786 28.6276 54.6606C27.1184 53.7539 25.1166 53.8897 23.9757 55.2306C22.8348 56.5715 22.9879 58.6023 24.4591 59.5693C26.9465 61.2042 29.7048 62.401 32.6148 63.0992C36.5612 64.0459 40.6752 64.0488 44.6229 63.1075C48.5706 62.1661 52.2407 60.3072 55.3352 57.6816C58.4298 55.056 60.8616 51.7376 62.4333 47.996C64.005 44.2543 64.6722 40.1947 64.3809 36.1469C64.0895 32.099 62.8477 28.1768 60.7564 24.6988C58.665 21.2208 55.783 18.285 52.3443 16.1297C49.8086 14.5404 47.023 13.4085 44.1143 12.7767ZM21.2141 52.4324C19.8583 53.5555 17.8295 53.3757 16.882 51.8918C14.1934 47.6817 12.7715 42.7598 12.8264 37.7192C12.8812 32.6786 14.4099 27.7888 17.1894 23.6382C18.169 22.1753 20.2012 22.0396 21.5322 23.192C22.8633 24.3444 22.9817 26.3473 22.0622 27.8486C20.2386 30.826 19.24 34.2581 19.2016 37.7886C19.1632 41.319 20.0868 44.772 21.8452 47.7884C22.7319 49.3094 22.5699 51.3092 21.2141 52.4324ZM24.5097 16.2926C23.0333 17.2518 22.8695 19.2819 24.0033 20.6288C25.1371 21.9757 27.1382 22.122 28.6521 21.2233C30.2994 20.2456 32.0824 19.5166 33.9428 19.0603C35.6527 18.6409 36.9781 17.1346 36.8435 15.3792C36.709 13.6237 35.1699 12.2899 33.4444 12.6397C30.2632 13.2846 27.2315 14.5241 24.5097 16.2926Z" fill="#148F2B"/>
</svg>
