<svg width="76" height="76" viewBox="0 0 76 76" fill="none" xmlns="http://www.w3.org/2000/svg">
<circle cx="38" cy="38" r="38" fill="#148F2B"/>
<path d="M62.2172 32.2301C63.7119 38.1224 63.0524 44.3549 60.3576 49.804C57.6628 55.2531 53.11 59.5602 47.52 61.9489C41.93 64.3376 35.6705 64.6507 29.8701 62.8317C24.0696 61.0128 19.1097 57.1816 15.8846 52.0286C12.6595 46.8757 11.3813 40.7401 12.2805 34.728C13.1797 28.7159 16.1972 23.2228 20.7888 19.239C25.3805 15.2552 31.2443 13.0428 37.3232 13.0006C43.402 12.9585 49.2959 15.0893 53.9424 19.0091L50.0443 23.6299C46.4994 20.6395 42.0028 19.0138 37.3651 19.0459C32.7274 19.0781 28.2538 20.766 24.7507 23.8053C21.2476 26.8447 18.9455 31.0355 18.2595 35.6222C17.5735 40.209 18.5486 44.89 21.0091 48.8213C23.4696 52.7526 27.2536 55.6755 31.6789 57.0632C36.1043 58.4509 40.8798 58.212 45.1445 56.3897C49.4092 54.5673 52.8827 51.2813 54.9386 47.1241C56.9945 42.9669 57.4976 38.2119 56.3573 33.7165L62.2172 32.2301Z" fill="white"/>
<path d="M28 35.5L37 42L56.5 26" stroke="white" stroke-width="6"/>
</svg>
