<svg width="34" height="32" viewBox="0 0 34 32" fill="none" xmlns="http://www.w3.org/2000/svg">
<path d="M9.59454 25.9103L12.642 19.7501C12.8777 19.2737 12.5311 18.7155 11.9996 18.7155H9.68845C7.72193 18.7155 5.83711 17.9289 4.454 16.531L4.34567 16.4215C3.32113 15.386 2.65115 14.0524 2.43194 12.6123L2.40246 12.4187C2.14488 10.7265 2.57373 9.00149 3.59374 7.62692C4.06563 6.99099 4.65111 6.44785 5.32062 6.02493L7.11821 4.88942C7.23384 4.81637 7.38462 4.89946 7.38462 5.03624L7.38462 8.34909C7.38462 9.02057 7.61136 9.67238 8.0281 10.1989C8.59341 10.9131 9.45426 11.3296 10.3651 11.3296H12.6765C13.1525 11.3296 13.5385 10.9437 13.5385 10.4676V6.48732C13.5385 6.15595 13.2698 5.88732 12.9385 5.88732H10.2972C10.1818 5.88732 10.094 5.78381 10.1128 5.66994L10.3251 4.38235C10.4139 3.84406 10.6676 3.34662 11.0514 2.9588C11.419 2.58718 11.889 2.33342 12.4014 2.22984L12.5625 2.19728C13.1979 2.06885 13.8573 2.13812 14.4521 2.39577L14.5049 2.41864C15.5771 2.88303 16.3305 3.8716 16.494 5.02847L16.5155 5.18084C16.5319 5.29649 16.6989 5.29649 16.7152 5.18084L16.7445 4.97349C16.9032 3.85077 17.6344 2.89139 18.6749 2.44071L18.7806 2.3949C19.3718 2.13885 20.031 2.08558 20.6556 2.24339C21.0351 2.3393 21.3916 2.51062 21.7036 2.74713L21.7503 2.78257C22.4046 3.2785 22.8437 4.00644 22.9773 4.81645L23.1247 5.71036C23.1399 5.80305 23.0684 5.88732 22.9745 5.88732H20.2923C19.9609 5.88732 19.6923 6.15595 19.6923 6.48732V10.1296C19.6923 10.7923 20.2296 11.3296 20.8923 11.3296H23.1492C23.6433 11.3296 24.1156 11.1265 24.4555 10.768L24.777 10.4289C25.418 9.75282 25.816 8.88281 25.9084 7.95577L26.1938 5.09233C26.211 4.91941 26.402 4.82296 26.5514 4.91176L28.5524 6.10141C29.1779 6.47329 29.7233 6.96571 30.1569 7.55009C31.1952 8.94925 31.5084 10.7579 31.0009 12.4247L30.6301 13.6427C30.3913 14.4272 30.0194 15.1648 29.5308 15.8233C28.1806 17.6428 26.0488 18.7155 23.7831 18.7155H21.8332C21.3787 18.7155 21.0823 19.1928 21.2838 19.6002L24.4055 25.9103C24.5603 26.2232 24.4162 26.6018 24.0926 26.7326L18.3493 29.0545C17.4838 29.4044 16.5162 29.4044 15.6507 29.0545L9.90745 26.7326C9.58376 26.6018 9.43973 26.2232 9.59454 25.9103Z" stroke="#168D2B" stroke-width="2.3" stroke-linecap="round"/>
</svg>
