<svg width="35" height="35" viewBox="0 0 35 35" fill="none" xmlns="http://www.w3.org/2000/svg">
<path fill-rule="evenodd" clip-rule="evenodd" d="M17.5 35C27.165 35 35 27.165 35 17.5C35 7.83502 27.165 0 17.5 0C7.83502 0 0 7.83502 0 17.5C0 27.165 7.83502 35 17.5 35ZM14.638 19.3262L12.1373 24.6214C12.0895 24.7225 12.1366 24.8429 12.2403 24.8847L17.1324 26.8589C17.4125 26.9719 17.7255 26.9719 18.0056 26.8589L22.8981 24.8846C23.0016 24.8428 23.0488 24.7227 23.0014 24.6216L20.5148 19.3254C20.3937 19.0675 20.5819 18.7712 20.8668 18.7712H22.2398C23.5578 18.7712 24.8171 18.2258 25.7187 17.2643C26.2182 16.7317 26.5887 16.0916 26.8017 15.3932L26.9628 14.8648C27.3521 13.5885 27.112 12.2031 26.3159 11.1322C26.0575 10.7847 25.7469 10.4791 25.3951 10.2264L24.0018 9.22558C23.9929 9.21921 23.9805 9.22502 23.9797 9.23591L23.9222 10.0271C23.8814 10.59 23.6466 11.1212 23.258 11.5304C22.7975 12.0152 22.1581 12.2897 21.4894 12.2897H19.6099C19.5643 12.2897 19.5275 12.2525 19.5281 12.2069L19.5508 10.4003C19.5521 10.2939 19.6388 10.2083 19.7452 10.2083H21.9324C21.9833 10.2083 22.0188 10.1578 22.0014 10.1099C21.8275 9.62898 21.5179 9.20882 21.1101 8.90026L20.9706 8.7947C20.7465 8.62513 20.4906 8.50233 20.2181 8.4336C19.77 8.32059 19.2971 8.35874 18.8729 8.54214L18.4537 8.72339C17.9143 8.95662 17.519 9.43388 17.3904 10.0073C17.3787 10.0593 17.3053 10.0609 17.2914 10.0095L17.2882 9.998C17.1334 9.42713 16.7269 8.95788 16.184 8.72313L15.7842 8.55028C15.3461 8.36084 14.8605 8.30992 14.3926 8.40432L14.3174 8.4195C13.9345 8.49676 13.5812 8.68058 13.2982 8.94979C13.0078 9.22603 12.8036 9.5805 12.7104 9.97032L12.6748 10.1196C12.6639 10.1648 12.6983 10.2083 12.7448 10.2083H14.943C15.0504 10.2083 15.1374 10.2954 15.1374 10.4028V12.1437C15.1374 12.2244 15.0721 12.2897 14.9914 12.2897H12.7285C12.131 12.2897 11.5721 11.994 11.2359 11.5C11.0926 11.2894 10.9955 11.0509 10.9509 10.8001L10.6778 9.26312C10.6741 9.24222 10.649 9.23337 10.633 9.24733L9.49663 10.239C9.21583 10.484 8.96343 10.7599 8.74419 11.0612L8.58216 11.284C7.86323 12.2722 7.59286 13.5172 7.83713 14.7147C8.00645 15.5448 8.41431 16.3074 9.0107 16.9091L9.24787 17.1483C10.2774 18.1869 11.6792 18.7712 13.1415 18.7712H14.2864C14.5717 18.7712 14.7598 19.0682 14.638 19.3262Z" fill="#F45D05"/>
</svg>
