<svg width="34" height="33" viewBox="0 0 34 33" fill="none" xmlns="http://www.w3.org/2000/svg">
<path d="M30.5571 16.0286C30.5571 16.8927 30.5544 17.6795 30.5519 18.402C30.5339 23.5871 30.5274 25.4528 31.6273 28.7273C31.6304 28.7364 31.6307 28.7409 31.6307 28.7418C31.6307 28.742 31.6307 28.7423 31.6307 28.7427C31.6307 28.7438 31.6306 28.7452 31.6302 28.7472C31.6288 28.7536 31.6238 28.7673 31.6111 28.7822C31.5984 28.7971 31.5866 28.8033 31.5824 28.8049C31.5809 28.8055 31.5803 28.8056 31.5801 28.8056L31.5801 28.8056L31.5773 28.8056C31.5757 28.8056 31.5725 28.8054 31.5677 28.8046C28.678 28.3136 26.8457 28.3216 24.8397 28.5372C23.7774 28.6513 22.6658 29.0442 21.6442 29.4053C21.3548 29.5077 21.0725 29.6074 20.8007 29.6976C19.4704 30.1387 17.9717 30.5286 16.0286 30.5286C8.00214 30.5286 1.5 24.0342 1.5 16.0286C1.5 8.02296 8.00214 1.52856 16.0286 1.52856C24.0484 1.52856 30.5571 8.12558 30.5571 16.0286Z" stroke="#08902B" stroke-width="3"/>
<path d="M13 12.6346V11.8826C13 10.5608 13.7473 9.35254 14.93 8.76223V8.76223C15.861 8.29761 16.9507 8.27288 17.9017 8.69481L18.0931 8.7797C18.4198 8.92464 18.7237 9.11629 18.9952 9.34864L19.1383 9.47108C19.8665 10.0941 20.2857 11.0045 20.2857 11.9629V11.9629C20.2857 12.9961 19.7988 13.9689 18.9717 14.5881L18.3429 15.0589C17.1199 15.9744 16.4 17.4128 16.4 18.9404V19.0286" stroke="#08902B" stroke-width="3" stroke-linecap="round"/>
<ellipse cx="16.7" cy="23.7255" rx="1.7" ry="1.69697" fill="#178D2A"/>
</svg>
