<svg width="83" height="85" viewBox="0 0 83 85" fill="none" xmlns="http://www.w3.org/2000/svg">
<rect y="8" width="77" height="77" rx="19" fill="#292626"/>
<path d="M25 59.945V35.4479C25 34.9164 25.4158 34.4777 25.9465 34.4493L50.9634 33.1091C51.7934 33.0646 52.3122 33.9934 51.8391 34.6769L44.3867 45.4414C44.1533 45.7786 44.1494 46.2241 44.3769 46.5653L52.027 58.0406C52.4567 58.6851 52.022 59.5524 51.2485 59.5938L26.0535 60.9436C25.481 60.9742 25 60.5183 25 59.945Z" stroke="#5C5C5C" stroke-width="3" stroke-linecap="round"/>
<circle cx="65.5" cy="18.5" r="17.5" fill="#1A8D26"/>
<path d="M65.7364 12.6667V18.7651M65.7364 24.8636V18.7651M65.7364 18.7651H71.8637M65.7364 18.7651H59.6667" stroke="white" stroke-width="3.18182" stroke-linecap="round"/>
</svg>
