<svg width="35" height="35" viewBox="0 0 35 35" fill="none" xmlns="http://www.w3.org/2000/svg">
<g clip-path="url(#clip0_52_92)">
<path d="M0.0105927 17.5878C-0.135518 8.88527 6.50598 1.18822 15.2524 0.140021C19.8531 -0.410787 24.0523 0.656402 27.8227 3.36652C28.5069 3.85797 28.5081 3.91495 27.8535 4.39928C27.0743 4.9762 26.2796 5.53295 25.5182 6.13242C25.182 6.39714 24.9278 6.4007 24.569 6.17041C22.5211 4.85393 20.2511 4.18442 17.8349 4.12388C14.6383 4.04434 11.7363 4.9952 9.22268 6.98594C6.53924 9.11201 4.86075 11.8744 4.31194 15.2623C3.65504 19.3186 4.64693 22.9582 7.29355 26.1099C11.842 31.5253 19.7474 32.3076 25.1962 28.363C28.7409 25.7953 30.6736 22.297 30.7888 17.8774C30.8031 17.3243 30.9753 16.961 31.4315 16.6476C32.3283 16.0327 33.1884 15.3632 34.0662 14.7198C34.6138 14.3186 34.7207 14.3577 34.8146 15.0498C35.1306 17.3694 35.0724 19.6842 34.3976 21.929C32.2345 29.1227 27.4509 33.5197 20.0301 34.7566C14.8081 35.6267 10.1017 34.1607 6.06289 30.7205C2.85084 27.9819 0.937147 24.4895 0.206595 20.343C0.0379142 19.3862 -0.0286077 18.4199 0.0094048 17.5878H0.0105927Z" fill="white"/>
<path d="M11.0413 12.9084C11.1815 12.9903 11.3371 13.0769 11.4868 13.1707C13.2995 14.302 15.1206 15.4214 16.9178 16.5765C17.3348 16.8447 17.6223 16.8352 18.019 16.5409C22.2301 13.4164 26.453 10.311 30.6736 7.19969C31.2984 6.7391 31.302 6.73672 31.7665 7.37537C32.3141 8.13036 32.7584 8.9447 33.1991 9.76498C33.4331 10.1994 33.3083 10.4214 32.946 10.6862C30.006 12.8336 27.0779 14.9965 24.1473 17.1546C22.0923 18.6681 20.0313 20.1745 17.9869 21.7023C17.6139 21.9813 17.3348 21.9967 16.9333 21.7379C15.0695 20.539 13.1855 19.372 11.3015 18.2051C10.9558 17.9915 10.7301 17.7493 10.7337 17.3136C10.7444 16.0079 10.7337 14.7032 10.7408 13.3975C10.742 13.2028 10.685 12.9381 11.0425 12.9096L11.0413 12.9084Z" fill="white"/>
</g>
<defs>
<clipPath id="clip0_52_92">
<rect width="35" height="35" fill="white"/>
</clipPath>
</defs>
</svg>
