<svg width="35" height="40" viewBox="0 0 35 40" fill="none" xmlns="http://www.w3.org/2000/svg">
<path d="M33.4259 20.5H2.08546C2.04053 20.5 2.00616 20.4599 2.013 20.4155L2.35078 18.2199C2.77532 15.4604 3.95445 12.872 5.75788 10.7407L5.87743 10.5994C7.58434 8.58214 9.87088 7.13924 12.4264 6.46674L13.1249 6.28292C16.3176 5.44273 19.6762 5.46561 22.8572 6.34921C25.5565 7.09902 27.9821 8.66069 29.7917 10.7993C31.5536 12.8815 32.7195 15.4268 33.1342 18.1226L33.4887 20.4268C33.4947 20.4653 33.4649 20.5 33.4259 20.5Z" stroke="white" stroke-width="3" stroke-linecap="round"/>
<path d="M19 11C21.5 11 25.7 11.7 26.5 16.5" stroke="white" stroke-width="3" stroke-linecap="round"/>
<path d="M12 34V34.8267C12 35.8721 12.5224 36.8483 13.3922 37.4282V37.4282C14.3776 38.0851 15.6495 38.1289 16.6777 37.5413L16.8051 37.4685C17.8532 36.8696 18.5 35.755 18.5 34.5479V22" stroke="white" stroke-width="3" stroke-linecap="round"/>
<path d="M18 4.5V2" stroke="white" stroke-width="3" stroke-linecap="round"/>
</svg>
