<svg width="77" height="77" viewBox="0 0 77 77" fill="none" xmlns="http://www.w3.org/2000/svg">
<rect width="77" height="77" rx="19" fill="#188B2B"/>
<path d="M54.4259 39.5H23.0855C23.0405 39.5 23.0062 39.4599 23.013 39.4155L23.3508 37.2199C23.7753 34.4604 24.9544 31.872 26.7579 29.7407L26.8774 29.5994C28.5843 27.5821 30.8709 26.1392 33.4264 25.4667L34.1249 25.2829C37.3176 24.4427 40.6762 24.4656 43.8572 25.3492C46.5565 26.099 48.9821 27.6607 50.7917 29.7993C52.5536 31.8815 53.7195 34.4268 54.1342 37.1226L54.4887 39.4268C54.4947 39.4653 54.4649 39.5 54.4259 39.5Z" stroke="white" stroke-width="3" stroke-linecap="round"/>
<path d="M40 30C42.5 30 46.7 30.7 47.5 35.5" stroke="white" stroke-width="3" stroke-linecap="round"/>
<path d="M33 53V53.8267C33 54.8721 33.5224 55.8483 34.3922 56.4282V56.4282C35.3776 57.0851 36.6495 57.1289 37.6777 56.5413L37.8051 56.4685C38.8532 55.8696 39.5 54.755 39.5 53.5479V41" stroke="white" stroke-width="3" stroke-linecap="round"/>
<path d="M39 23.5V21" stroke="white" stroke-width="3" stroke-linecap="round"/>
</svg>
