<svg width="32" height="34" viewBox="0 0 32 34" fill="none" xmlns="http://www.w3.org/2000/svg">
<path d="M26.4067 27H5.93391C4.4699 27 3.15945 26.0919 2.6454 24.7211C2.24114 23.643 2.39092 22.4353 3.04626 21.4887L4.81801 18.9295C5.91324 17.3475 6.5 15.4692 6.5 13.545V9.45743C6.5 5.95621 8.88287 2.90428 12.2796 2.05511L12.4482 2.01295C15.1064 1.34841 17.8892 1.36559 20.539 2.06289C23.7571 2.90975 26 5.81931 26 9.14694V13.8046C26 15.5524 26.5778 17.2511 27.6434 18.6364L29.4003 20.9204C30.3621 22.1708 30.4455 23.8872 29.6094 25.2249C28.9193 26.3292 27.7089 27 26.4067 27Z" stroke="white" stroke-width="3" stroke-linecap="round"/>
<path d="M15.5 6C11 6 11 7 11 13" stroke="white" stroke-width="2.6" stroke-linecap="round"/>
<path d="M14 32H20" stroke="white" stroke-width="3" stroke-linecap="round"/>
</svg>
