<svg width="77" height="77" viewBox="0 0 77 77" fill="none" xmlns="http://www.w3.org/2000/svg">
<rect width="77" height="77" rx="19" fill="#188B2B"/>
<path d="M48.4067 49H27.9339C26.4699 49 25.1594 48.0919 24.6454 46.7211C24.2411 45.643 24.3909 44.4353 25.0463 43.4887L26.818 40.9295C27.9132 39.3475 28.5 37.4692 28.5 35.545V31.4574C28.5 27.9562 30.8829 24.9043 34.2796 24.0551L34.4482 24.013C37.1064 23.3484 39.8892 23.3656 42.539 24.0629C45.7571 24.9098 48 27.8193 48 31.1469V35.8046C48 37.5524 48.5778 39.2511 49.6434 40.6364L51.4003 42.9204C52.3621 44.1708 52.4455 45.8872 51.6094 47.2249C50.9193 48.3292 49.7089 49 48.4067 49Z" stroke="white" stroke-width="3" stroke-linecap="round"/>
<path d="M37.5 28C33 28 33 29 33 35" stroke="white" stroke-width="2.6" stroke-linecap="round"/>
<path d="M36 54H42" stroke="white" stroke-width="3" stroke-linecap="round"/>
</svg>
